<svg width="18" height="18" viewBox="0 0 18 18" fill="none" xmlns="http://www.w3.org/2000/svg">
<g clip-path="url(#clip0_326_14)">
<path d="M9 0C4.0368 0 0 4.0368 0 9C0 13.9632 4.0368 18 9 18C13.9632 18 18 13.9632 18 9C18 4.0368 13.9632 0 9 0ZM9 16.8C4.6992 16.8 1.2 13.3008 1.2 9C1.2 4.6992 4.6992 1.2 9 1.2C13.3008 1.2 16.8 4.6992 16.8 9C16.8 13.3008 13.3008 16.8 9 16.8Z" fill="white"/>
<path d="M9.59995 4.2H8.39995V8.4H4.19995V9.6H8.39995V13.8H9.59995V9.6H13.8V8.4H9.59995V4.2Z" fill="white"/>
</g>
<defs>
<clipPath id="clip0_326_14">
<rect width="18" height="18" fill="white"/>
</clipPath>
</defs>
</svg>
