<svg width="20" height="20" viewBox="0 0 20 20" fill="none" xmlns="http://www.w3.org/2000/svg">
<g clip-path="url(#clip0_322_99)">
<path d="M10 0C8.02219 0 6.08879 0.58649 4.4443 1.6853C2.79981 2.78412 1.51809 4.3459 0.761209 6.17317C0.00433281 8.00043 -0.193701 10.0111 0.192152 11.9509C0.578004 13.8907 1.53041 15.6725 2.92894 17.0711C4.32746 18.4696 6.10929 19.422 8.0491 19.8079C9.98891 20.1937 11.9996 19.9957 13.8268 19.2388C15.6541 18.4819 17.2159 17.2002 18.3147 15.5557C19.4135 13.9112 20 11.9778 20 10C19.9971 7.34872 18.9426 4.80687 17.0679 2.93213C15.1931 1.05739 12.6513 0.00289509 10 0V0ZM10 19.0625C8.20761 19.0625 6.45547 18.531 4.96515 17.5352C3.47483 16.5394 2.31327 15.124 1.62735 13.4681C0.941427 11.8121 0.761959 9.98995 1.11164 8.23199C1.46132 6.47404 2.32444 4.85926 3.59185 3.59184C4.85926 2.32443 6.47405 1.46131 8.232 1.11163C9.98995 0.761955 11.8121 0.941423 13.4681 1.62734C15.124 2.31326 16.5394 3.47482 17.5352 4.96514C18.531 6.45547 19.0625 8.20761 19.0625 10C19.0596 12.4026 18.1039 14.706 16.405 16.405C14.706 18.1039 12.4026 19.0596 10 19.0625Z" fill="#019392"/>
<path d="M14.3938 5.59221C14.3059 5.50443 14.1868 5.45512 14.0625 5.45512C13.9383 5.45512 13.8192 5.50443 13.7313 5.59221L10 9.33596L6.27034 5.58596C6.18228 5.4979 6.06285 5.44843 5.93831 5.44843C5.81378 5.44843 5.69434 5.4979 5.60628 5.58596C5.51822 5.67402 5.46875 5.79345 5.46875 5.91799C5.46875 6.04252 5.51822 6.16196 5.60628 6.25002L9.33753 10L5.60628 13.75C5.51843 13.8381 5.46916 13.9574 5.4693 14.0818C5.46945 14.2062 5.519 14.3254 5.60706 14.4133C5.69512 14.5012 5.81448 14.5504 5.93887 14.5503C6.06325 14.5501 6.18249 14.5006 6.27034 14.4125L10 10.6641L13.7313 14.4141C13.8193 14.5021 13.9388 14.5516 14.0633 14.5516C14.1878 14.5516 14.3073 14.5021 14.3953 14.4141C14.4834 14.326 14.5329 14.2066 14.5329 14.0821C14.5329 13.9575 14.4834 13.8381 14.3953 13.75L10.6625 10L14.3953 6.25002C14.4815 6.16212 14.5296 6.04387 14.5293 5.92079C14.529 5.79772 14.4803 5.67969 14.3938 5.59221Z" fill="#019392"/>
</g>
<defs>
<clipPath id="clip0_322_99">
<rect width="20" height="20" fill="white"/>
</clipPath>
</defs>
</svg>
