<svg width="306" height="316" viewBox="0 0 306 316" fill="none" xmlns="http://www.w3.org/2000/svg">
<path d="M200 56C200 80.5805 179.457 101 153.5 101C127.543 101 107 80.5805 107 56C107 31.4195 127.543 11 153.5 11C179.457 11 200 31.4195 200 56Z" stroke="url(#paint0_linear_545_21)" stroke-width="22"/>
<path d="M90.5938 56.7955C93.5254 56.2662 96.4984 56 99.4774 56H206.523C209.502 56 212.475 56.2662 215.406 56.7955L223.039 58.1736C238.447 60.9554 251.662 70.794 258.746 84.7568L260.296 87.8134C262.092 91.3538 263.46 95.0954 264.372 98.9593L303.636 265.476C305.186 272.049 305.026 278.909 303.171 285.402V285.402C299.344 298.795 288.75 309.184 275.286 312.748L269.289 314.335C265.114 315.44 260.813 316 256.494 316H211H95H49.6959C45.2518 316 40.8275 315.408 36.54 314.238L31.1534 312.769C17.9651 309.172 7.50189 299.131 3.36564 286.102V286.102C1.16312 279.164 0.882224 271.759 2.55284 264.674L41.6285 98.9594C42.5396 95.0954 43.9076 91.3538 45.7037 87.8134L47.2544 84.7568C54.3379 70.794 67.5531 60.9554 82.9609 58.1736L90.5938 56.7955Z" fill="url(#paint1_linear_545_21)"/>
<path d="M141.218 121.441C144.392 113.973 153.866 114.023 156.978 121.524L208.532 245.776C211.943 253.996 204.437 262.561 197.072 258.853L154.245 237.29C150.783 235.546 146.816 235.581 143.378 237.383L99.2145 260.527C91.8041 264.411 84.1442 255.721 87.6681 247.43L141.218 121.441Z" fill="white"/>
<defs>
<linearGradient id="paint0_linear_545_21" x1="55" y1="7" x2="211" y2="184" gradientUnits="userSpaceOnUse">
<stop stop-color="#659BEE"/>
<stop offset="1" stop-color="#4982D8"/>
</linearGradient>
<linearGradient id="paint1_linear_545_21" x1="99" y1="0.499991" x2="266.5" y2="316" gradientUnits="userSpaceOnUse">
<stop stop-color="#84B4FC"/>
<stop offset="0.497966" stop-color="#2463C1"/>
<stop offset="0.498066" stop-color="#2462C0"/>
<stop offset="1" stop-color="#5D8EDA"/>
</linearGradient>
</defs>
</svg>
