<svg width="25" height="25" viewBox="0 0 25 25" fill="none" xmlns="http://www.w3.org/2000/svg">
<g clip-path="url(#clip0_18_263)">
<path fill-rule="evenodd" clip-rule="evenodd" d="M24.1833 25H0.850006L3.35001 5H6.76584C7.17334 2.17667 9.58084 0 12.5167 0C15.4525 0 17.8575 2.17667 18.265 5H21.6833L24.1833 25ZM12.5167 1.66667C10.5025 1.66667 8.84001 3.10083 8.45167 5H16.5825C16.1933 3.10083 14.53 1.66667 12.5167 1.66667ZM4.66917 6.66667L2.51667 23.3333H22.5167L20.4333 6.66667H4.66917ZM16.2667 10.8333C15.5767 10.8333 15.0167 10.2733 15.0167 9.5825C15.0167 8.8925 15.5767 8.33333 16.2667 8.33333C16.9567 8.33333 17.5167 8.8925 17.5167 9.5825C17.5167 10.2742 16.9567 10.8333 16.2667 10.8333ZM8.76667 10.8333C8.07584 10.8333 7.51667 10.2733 7.51667 9.5825C7.51667 8.8925 8.07584 8.33333 8.76667 8.33333C9.45751 8.33333 10.0167 8.8925 10.0167 9.5825C10.0167 10.2742 9.45667 10.8333 8.76667 10.8333Z" fill="#019392"/>
</g>
<defs>
<clipPath id="clip0_18_263">
<rect width="25" height="25" fill="white"/>
</clipPath>
</defs>
</svg>
