<svg width="32" height="30" viewBox="0 0 32 30" fill="none" xmlns="http://www.w3.org/2000/svg">
<g clip-path="url(#clip0_311_8)">
<path d="M7.87293 19.8895C6.63232 19.8895 5.62354 20.8974 5.62354 22.1363C5.62354 23.3751 6.63232 24.383 7.87293 24.383C9.11352 24.383 10.1223 23.3751 10.1223 22.1363C10.1223 20.8974 9.11352 19.8895 7.87293 19.8895ZM7.87293 23.2596C7.25293 23.2596 6.74823 22.7558 6.74823 22.1363C6.74823 21.5167 7.25293 21.0129 7.87293 21.0129C8.49291 21.0129 8.99763 21.5167 8.99763 22.1363C8.99763 22.7558 8.49291 23.2596 7.87293 23.2596Z" fill="#019392"/>
<path d="M14.0603 20.4512H13.8258C13.6952 19.9882 13.5106 19.5442 13.2745 19.1234L13.4409 18.9575C14.0982 18.3012 14.0977 17.2326 13.4398 16.5758C13.1202 16.2565 12.6968 16.0807 12.247 16.0807C12.2464 16.0807 12.2459 16.0807 12.2459 16.0807C11.7962 16.081 11.3733 16.2565 11.0553 16.5744L10.8889 16.7406C10.4682 16.505 10.0234 16.3207 9.55994 16.1902V15.956C9.55994 15.0275 8.80317 14.2725 7.87289 14.2725C6.94258 14.2725 6.18584 15.0275 6.18584 15.956V16.1902C5.72234 16.3207 5.27752 16.505 4.85683 16.7406L4.69043 16.5747C4.0331 15.9184 2.96328 15.9189 2.30595 16.5758C1.98632 16.8953 1.81008 17.319 1.81058 17.7683C1.81058 18.2172 1.98632 18.6396 2.30483 18.9572L2.47072 19.1234C2.2351 19.5442 2.05059 19.9885 1.9199 20.4512H1.6854C0.756177 20.4512 0 21.207 0 22.1363C0 23.0655 0.756177 23.8213 1.6854 23.8213H1.9199C2.05059 24.284 2.2351 24.7283 2.47072 25.1491L2.30483 25.315C1.6475 25.9713 1.64806 27.0399 2.30595 27.6967C2.62554 28.016 3.04899 28.1918 3.49875 28.1918C3.49932 28.1918 3.49932 28.1918 3.49982 28.1918C3.94908 28.1915 4.37191 28.0163 4.69043 27.6981L4.85683 27.5319C5.27752 27.7675 5.72234 27.9518 6.18584 28.0823V28.3165C6.18584 29.245 6.94258 30 7.87289 30C8.80317 30 9.55994 29.245 9.55994 28.3165V28.0823C10.0234 27.9518 10.4682 27.7675 10.8889 27.5319L11.0553 27.6978C11.7127 28.3544 12.7825 28.3533 13.4398 27.6967C13.7594 27.3772 13.9357 26.9535 13.9352 26.5042C13.9352 26.0553 13.7594 25.6329 13.4409 25.315L13.2745 25.1491C13.5106 24.7283 13.6952 24.2843 13.8258 23.8213H14.0603C14.9896 23.8213 15.7458 23.0655 15.7458 22.1363C15.7458 21.207 14.9896 20.4512 14.0603 20.4512ZM14.0603 22.6979H13.3838C13.1163 22.6979 12.8857 22.8861 12.8324 23.148C12.7039 23.7832 12.4557 24.3806 12.0954 24.9236C11.9477 25.1463 11.9779 25.442 12.1668 25.631L12.6457 26.1095C12.7523 26.2154 12.8105 26.3558 12.8105 26.5047C12.811 26.654 12.7517 26.7952 12.6446 26.9025C12.4255 27.121 12.0696 27.1224 11.8505 26.9033L11.3716 26.4252C11.1822 26.2365 10.8856 26.2072 10.6638 26.3545C10.1201 26.7137 9.52202 26.9614 8.88611 27.0903C8.62362 27.1433 8.43524 27.3736 8.43524 27.6408V28.3165C8.43524 28.6306 8.18807 28.8766 7.87289 28.8766C7.56257 28.8766 7.31054 28.6254 7.31054 28.3165V27.6408C7.31054 27.3736 7.12215 27.1433 6.85963 27.0903C6.22373 26.9614 5.62567 26.7137 5.08199 26.3545C4.98752 26.2916 4.87938 26.261 4.77174 26.261C4.62671 26.261 4.48286 26.3169 4.37411 26.4252L3.89527 26.9035C3.7887 27.0097 3.64811 27.0684 3.49932 27.0684C3.49875 27.0684 3.49875 27.0684 3.49875 27.0684C3.34939 27.0684 3.20824 27.0097 3.10112 26.9025C2.88204 26.6836 2.88148 26.3276 3.10005 26.109L3.57838 25.6307C3.76728 25.442 3.79698 25.1463 3.64974 24.9239C3.29007 24.3806 3.04184 23.7829 2.91335 23.148C2.86004 22.8861 2.62942 22.6979 2.36196 22.6979H1.6854C1.37622 22.6979 1.1247 22.4459 1.1247 22.1363C1.1247 21.8266 1.37622 21.5746 1.6854 21.5746H2.36196C2.62942 21.5746 2.86004 21.3864 2.91335 21.1245C3.04184 20.4896 3.29007 19.8919 3.64974 19.3486C3.79698 19.1262 3.76728 18.8305 3.57838 18.6418L3.10005 18.163C2.99348 18.0571 2.93528 17.9167 2.93528 17.7678C2.93477 17.6185 2.99405 17.4773 3.10112 17.37C3.3197 17.1512 3.67556 17.1498 3.89527 17.3692L4.37411 17.8473C4.56356 18.0363 4.86014 18.0659 5.08199 17.918C5.62567 17.5588 6.22373 17.3111 6.85963 17.1822C7.12215 17.1292 7.31054 16.8989 7.31054 16.6317V15.956C7.31054 15.6419 7.55768 15.3959 7.87289 15.3959C8.18318 15.3959 8.43524 15.6471 8.43524 15.956V16.6317C8.43524 16.8989 8.62362 17.1292 8.88611 17.1822C9.52202 17.3111 10.1201 17.5588 10.6638 17.918C10.8856 18.0659 11.1822 18.0363 11.3716 17.8473L11.851 17.3687C11.957 17.2625 12.0976 17.2041 12.2464 17.2041C12.2464 17.2041 12.2464 17.2041 12.247 17.2041C12.3964 17.2041 12.5375 17.2628 12.6446 17.37C12.8637 17.5889 12.8643 17.9449 12.6457 18.1633L12.1668 18.6415C11.9779 18.8305 11.9477 19.1262 12.0954 19.3489C12.4557 19.8919 12.7039 20.4893 12.8324 21.1245C12.8857 21.3864 13.1163 21.5746 13.3838 21.5746H14.0603C14.3695 21.5746 14.6211 21.8266 14.6211 22.1363C14.6211 22.4459 14.3695 22.6979 14.0603 22.6979Z" fill="#019392"/>
<path d="M25.1431 13.8754C24.6093 13.5545 23.981 13.4598 23.3742 13.6113C22.7685 13.7621 22.2578 14.1395 21.9365 14.674C21.6147 15.2086 21.5208 15.8361 21.6718 16.4411C21.9371 17.5011 22.8921 18.2109 23.9399 18.2109C24.126 18.2109 24.316 18.1885 24.505 18.1413C25.7554 17.8297 26.5187 16.5604 26.2074 15.3114C26.0558 14.7064 25.678 14.1965 25.1431 13.8754ZM24.9789 16.5001C24.812 16.7771 24.5473 16.9729 24.2326 17.0514C23.5851 17.2132 22.9256 16.8171 22.7635 16.1691C22.685 15.8553 22.7339 15.53 22.9003 15.2527C23.0672 14.9754 23.3319 14.7796 23.6466 14.7012C23.7443 14.6767 23.8438 14.6647 23.9421 14.6647C24.159 14.6647 24.3726 14.7234 24.5637 14.838C24.8416 15.0048 25.0376 15.2694 25.1156 15.5835C25.1942 15.8972 25.1458 16.2228 24.9789 16.5001Z" fill="#019392"/>
<path d="M30.6782 15.9952C31.6113 15.7623 32.1808 14.8144 31.9479 13.8819C31.7151 12.9489 30.7656 12.3801 29.8331 12.6118L29.5728 12.6768C29.3163 12.2254 29.0077 11.809 28.6496 11.4316L28.7886 11.201C29.028 10.8025 29.0977 10.334 28.9852 9.88232C28.872 9.4306 28.5897 9.04988 28.1905 8.81049C27.7891 8.56912 27.3212 8.49807 26.8675 8.61164C26.4167 8.7241 26.0361 9.00601 25.7956 9.4051L25.6572 9.63573C25.1558 9.4975 24.6429 9.42071 24.1239 9.40645L24.0585 9.14537C23.8257 8.21424 22.8784 7.64373 21.9431 7.87767C21.0096 8.11027 20.4384 9.05758 20.6713 9.98954L20.7361 10.2501C20.2847 10.506 19.8679 10.8143 19.49 11.1716L19.2593 11.0334C18.8601 10.7937 18.3917 10.723 17.9386 10.8368C17.4866 10.9495 17.105 11.2314 16.865 11.6305C16.6239 12.0315 16.5536 12.5007 16.6667 12.9519C16.7793 13.4022 17.0616 13.7823 17.4614 14.0224L17.692 14.1606C17.5531 14.6611 17.4762 15.1737 17.4625 15.6923L17.2011 15.7576C16.7497 15.8701 16.3685 16.1518 16.1286 16.5511C15.8886 16.9501 15.8188 17.4189 15.9314 17.8706C16.1642 18.8034 17.1143 19.3733 18.0462 19.141L18.3071 19.076C18.563 19.5272 18.8716 19.9435 19.2297 20.3209L19.0907 20.5515C18.8513 20.9501 18.7816 21.4185 18.8941 21.8702C19.0073 22.3219 19.2896 22.7026 19.6888 22.9421C20.0903 23.1831 20.5587 23.2538 21.0118 23.1409C21.4626 23.0284 21.8432 22.7465 22.0837 22.3469L22.2221 22.1168C22.7235 22.255 23.2364 22.3318 23.7559 22.346L23.8208 22.6066C23.9334 23.058 24.2156 23.4385 24.6154 23.6782C24.89 23.843 25.1981 23.9275 25.5106 23.9275C25.6522 23.9275 25.795 23.9099 25.9362 23.8748C26.3903 23.7618 26.7725 23.4799 27.012 23.0811C27.2515 22.6828 27.3206 22.2147 27.208 21.7632L27.1427 21.5027C27.5946 21.2468 28.0115 20.9383 28.3893 20.5809L28.6205 20.7196C29.0192 20.9591 29.4876 21.028 29.9407 20.9157C30.3927 20.8028 30.7738 20.5208 31.0132 20.1223C31.2549 19.7216 31.3257 19.252 31.2126 18.8006C31.1 18.3503 30.8177 17.9701 30.4179 17.7302L30.1873 17.5919C30.3262 17.0914 30.4031 16.579 30.4168 16.0601L30.6782 15.9952ZM29.715 15.0772C29.4558 15.1417 29.2773 15.38 29.2894 15.6468C29.3196 16.3331 29.2186 17.0096 28.9879 17.6578C28.8984 17.9095 28.9989 18.1895 29.2284 18.3272L29.8391 18.6934C29.9814 18.7787 30.0819 18.9136 30.1214 19.073C30.1615 19.2329 30.1362 19.3999 30.0494 19.5436C29.9643 19.6854 29.8287 19.7858 29.6677 19.8258C29.5063 19.8664 29.341 19.8417 29.1993 19.7564L28.5887 19.39C28.3602 19.2532 28.0658 19.2954 27.8846 19.4923C27.4189 20.0003 26.8681 20.4073 26.2487 20.7021C26.007 20.817 25.8802 21.0858 25.9444 21.345L26.1168 22.035C26.1569 22.196 26.1322 22.362 26.0476 22.5029C25.9626 22.6442 25.8263 22.7443 25.6638 22.7849C25.5039 22.8255 25.3365 22.8002 25.1943 22.715C25.0525 22.6299 24.9521 22.495 24.912 22.3348L24.74 21.645C24.6769 21.3941 24.4512 21.2194 24.1942 21.2194C24.186 21.2194 24.1777 21.2197 24.1695 21.2199C23.4836 21.2512 22.8053 21.1486 22.1557 20.9188C21.9047 20.8296 21.6235 20.9298 21.4857 21.1593L21.1194 21.7687C21.0343 21.9108 20.8992 22.0112 20.7394 22.0509C20.5801 22.0915 20.4126 22.0655 20.2682 21.9791C20.126 21.8938 20.026 21.7586 19.9854 21.5979C19.9453 21.4374 19.97 21.2712 20.0551 21.13L20.4219 20.5202C20.5598 20.2912 20.517 19.9972 20.3198 19.8168C19.8113 19.3516 19.4038 18.8017 19.1078 18.1821C18.993 17.941 18.7267 17.8147 18.4642 17.8788L17.7744 18.0511C17.4345 18.135 17.1066 17.9356 17.0232 17.5985C16.9825 17.4378 17.0077 17.271 17.0929 17.1292C17.178 16.9874 17.3131 16.8876 17.4735 16.8476L18.1643 16.6753C18.4235 16.6106 18.602 16.3723 18.5899 16.1057C18.5597 15.4195 18.6608 14.7431 18.8914 14.0953C18.9809 13.8432 18.8804 13.5632 18.6509 13.4256L18.0402 13.0591C17.8979 12.9738 17.7975 12.8389 17.7574 12.6793C17.7173 12.5194 17.7431 12.3523 17.8293 12.2092C17.9144 12.0671 18.0501 11.9667 18.2116 11.9267C18.3725 11.8864 18.5389 11.9119 18.68 11.9964L19.2907 12.3625C19.5202 12.5004 19.814 12.4574 19.9947 12.2602C20.4604 11.7523 21.0112 11.3453 21.6306 11.0504C21.8723 10.9355 21.9997 10.6664 21.9344 10.4073L21.7625 9.71774C21.6796 9.38695 21.8833 9.05044 22.2155 8.96765C22.5472 8.88424 22.885 9.08695 22.9674 9.4174L23.1393 10.1072C23.204 10.3664 23.4462 10.5389 23.7098 10.5326C24.3979 10.5016 25.0745 10.6039 25.7231 10.8337C25.9746 10.9234 26.2547 10.8228 26.3931 10.5938L26.7599 9.98376C26.845 9.8417 26.9801 9.74133 27.1399 9.70156C27.3003 9.66179 27.4678 9.68729 27.6111 9.7734C27.7533 9.85872 27.8533 9.99393 27.8939 10.1546C27.934 10.3151 27.9093 10.4813 27.8242 10.6226L27.4574 11.2322C27.3195 11.4612 27.3623 11.7553 27.5595 11.9357C28.068 12.4009 28.4755 12.9508 28.7715 13.5704C28.8869 13.8117 29.1548 13.9382 29.4151 13.8737L30.1055 13.7017C30.4427 13.6192 30.7721 13.8161 30.8562 14.154C30.9391 14.4856 30.737 14.8227 30.4058 14.9052L29.715 15.0772Z" fill="#019392"/>
<path d="M11.5863 5.06839C10.6977 4.42384 9.45111 4.62184 8.80694 5.50803C8.4945 5.9375 8.36819 6.46303 8.45108 6.98715C8.53403 7.51155 8.81684 7.97231 9.24687 8.28444C9.5994 8.54001 10.008 8.66319 10.4139 8.66319C11.0295 8.66319 11.6374 8.37903 12.0262 7.84452L12.0267 7.84424C12.6709 6.95754 12.4737 5.71237 11.5863 5.06839ZM11.1168 7.18408C10.8367 7.56912 10.2946 7.65579 9.90802 7.3755C9.72076 7.23974 9.59777 7.0395 9.56206 6.81162C9.52585 6.58368 9.58073 6.35524 9.71637 6.16847C9.88553 5.93587 10.1497 5.81247 10.4177 5.81247C10.594 5.81247 10.7719 5.86622 10.9251 5.97727C11.3106 6.25705 11.3968 6.79842 11.1168 7.18408Z" fill="#019392"/>
<path d="M16.1472 9.51146C16.084 9.11406 15.8693 8.76412 15.542 8.52658L15.4344 8.44839C15.5579 8.09929 15.6441 7.7397 15.6925 7.37274L15.8242 7.3519C16.2235 7.28854 16.5739 7.0738 16.8117 6.74712C17.0489 6.42021 17.145 6.02062 17.0813 5.62182C16.9506 4.79792 16.1703 4.23375 15.3509 4.36457L15.2191 4.38541C15.0593 4.05081 14.8659 3.73541 14.6403 3.44198L14.7183 3.3347C14.956 3.00863 15.0521 2.60927 14.9884 2.21052C14.9253 1.81115 14.71 1.46065 14.3827 1.22345C14.0537 0.984559 13.6523 0.88688 13.2558 0.951925C12.8571 1.015 12.5067 1.23002 12.2695 1.55665L12.191 1.66444C11.8417 1.54075 11.4815 1.45464 11.1135 1.40662L11.0926 1.27417C10.9619 0.451621 10.1816 -0.111985 9.36111 0.0188338C8.96021 0.0824741 8.60874 0.297211 8.37149 0.623894C8.13423 0.949678 8.03869 1.34904 8.1024 1.74757L8.12327 1.87946C7.78827 2.03881 7.47252 2.23192 7.17869 2.45733L7.07049 2.37892C6.3967 1.88934 5.44828 2.03993 4.9573 2.71408C4.71841 3.04206 4.6218 3.44221 4.68547 3.84101C4.74861 4.23869 4.96388 4.58869 5.29066 4.82589L5.39885 4.90436C5.2753 5.25295 5.18853 5.61221 5.14073 5.97973L5.00841 6.00057C4.18519 6.13088 3.62121 6.90704 3.75134 7.73093C3.88203 8.55455 4.66185 9.11844 5.48176 8.98818L5.61412 8.96706C5.77338 9.30138 5.96671 9.61677 6.19238 9.91026L6.11388 10.0183C5.62403 10.6922 5.77501 11.6392 6.44994 12.1294C7.126 12.6194 8.07327 12.4697 8.5637 11.7961L8.64226 11.688C8.99153 11.8117 9.35177 11.8981 9.71916 11.9461L9.74058 12.0775C9.80317 12.4763 10.0184 12.8265 10.3458 13.064C10.6066 13.2533 10.9147 13.3526 11.2316 13.3526C11.3112 13.3526 11.3919 13.3463 11.4721 13.3336C12.2964 13.2034 12.8609 12.428 12.7308 11.605L12.71 11.473C13.0449 11.3137 13.3607 11.1206 13.6545 10.8954L13.7622 10.9733C14.0883 11.2103 14.4876 11.3055 14.8874 11.2432C15.2872 11.1798 15.6381 10.9651 15.8754 10.6384C16.1142 10.3104 16.2109 9.91026 16.1472 9.51146ZM14.4179 9.09951L14.8808 9.43524C14.9648 9.49669 15.0203 9.58633 15.0368 9.68783C15.0527 9.78983 15.0275 9.89268 14.9654 9.978C14.9044 10.0622 14.8144 10.1173 14.7111 10.1338C14.6095 10.1483 14.5063 10.125 14.4233 10.0647L13.9604 9.72867C13.7451 9.57206 13.4475 9.58824 13.2498 9.76928C12.8532 10.1324 12.3953 10.4124 11.8889 10.6017C11.6385 10.6952 11.4892 10.9519 11.5309 11.2155L11.6204 11.7802C11.6539 11.9949 11.5116 12.19 11.2964 12.2239C11.1915 12.2407 11.0899 12.2155 11.0064 12.1549C10.9224 12.094 10.8675 12.0043 10.851 11.9017L10.7609 11.3367C10.7192 11.0731 10.4973 10.8754 10.2304 10.8639C9.69059 10.8403 9.1689 10.7152 8.67903 10.4922C8.60379 10.458 8.52416 10.4415 8.44566 10.4415C8.27045 10.4415 8.09908 10.5238 7.99096 10.673L7.65427 11.1357C7.52633 11.3115 7.28851 11.3488 7.11115 11.2204C6.93761 11.0945 6.89864 10.8513 7.02382 10.6785L7.36049 10.2161C7.51806 9.99997 7.50108 9.70316 7.3204 9.50623C6.95572 9.10911 6.6751 8.65195 6.48677 8.14754C6.39337 7.89686 6.13474 7.74852 5.87224 7.78879L5.30601 7.87849C5.08911 7.91444 4.89583 7.77014 4.86231 7.5554C4.8288 7.34342 4.97327 7.14374 5.18415 7.11026L5.75032 7.02084C6.01446 6.97916 6.21274 6.75729 6.22427 6.49015C6.24732 5.95097 6.37252 5.42983 6.59604 4.9411C6.70749 4.69811 6.63176 4.41041 6.41535 4.25324L5.95188 3.91701C5.86729 3.85584 5.81235 3.76614 5.79587 3.66464C5.77996 3.56264 5.80521 3.45979 5.86673 3.37503C5.99303 3.20118 6.23799 3.16333 6.40934 3.2878L6.87283 3.62409C7.08916 3.78153 7.38631 3.76451 7.58347 3.58348C7.98048 3.21983 8.43852 2.93977 8.94373 2.75138C9.19415 2.65785 9.34463 2.4011 9.30236 2.13727L9.21282 1.57148C9.1969 1.46919 9.22108 1.36685 9.28148 1.28378C9.34244 1.20014 9.43303 1.14498 9.53686 1.12852C9.74879 1.09285 9.94814 1.23991 9.98224 1.45026L10.0717 2.0155C10.1135 2.27933 10.3353 2.47738 10.6028 2.4889C11.1421 2.51221 11.6643 2.63702 12.1542 2.86023C12.398 2.97162 12.6852 2.8959 12.8423 2.67948L13.1795 2.21653C13.2404 2.13261 13.3299 2.07751 13.4316 2.06133C13.5353 2.04431 13.6369 2.07038 13.7221 2.13205C13.8061 2.19322 13.8615 2.28348 13.878 2.38633C13.8939 2.48833 13.8692 2.59034 13.8083 2.67431L13.4722 3.13698C13.3151 3.35312 13.3322 3.64987 13.5128 3.84652C13.8769 4.2428 14.157 4.70002 14.3464 5.20549C14.4404 5.45617 14.7018 5.6062 14.961 5.56368L15.5266 5.47426C15.7419 5.43696 15.9368 5.58205 15.9709 5.79791C15.9868 5.90048 15.9621 6.00304 15.9012 6.08724C15.8402 6.17093 15.7507 6.22604 15.6485 6.24221L15.0829 6.33163C14.8188 6.37331 14.6205 6.59518 14.609 6.86233C14.5859 7.40015 14.4607 7.9218 14.2366 8.41222C14.1257 8.65521 14.2015 8.94263 14.4179 9.09951Z" fill="#019392"/>
</g>
<defs>
<clipPath id="clip0_311_8">
<rect width="32" height="30" fill="white"/>
</clipPath>
</defs>
</svg>
