<svg width="20" height="20" viewBox="0 0 20 20" fill="none" xmlns="http://www.w3.org/2000/svg">
<path d="M17 14.4C16.3667 14.4 15.8 14.65 15.3667 15.0417L9.425 11.5833C9.46667 11.3917 9.5 11.2 9.5 11C9.5 10.8 9.46667 10.6083 9.425 10.4167L15.3 6.99167C15.75 7.40834 16.3417 7.66667 17 7.66667C18.3833 7.66667 19.5 6.55001 19.5 5.16667C19.5 3.78334 18.3833 2.66667 17 2.66667C15.6167 2.66667 14.5 3.78334 14.5 5.16667C14.5 5.36667 14.5333 5.55834 14.575 5.75001L8.7 9.17501C8.25 8.75834 7.65833 8.50001 7 8.50001C5.61667 8.50001 4.5 9.61667 4.5 11C4.5 12.3833 5.61667 13.5 7 13.5C7.65833 13.5 8.25 13.2417 8.7 12.825L14.6333 16.2917C14.5917 16.4667 14.5667 16.65 14.5667 16.8333C14.5667 18.175 15.6583 19.2667 17 19.2667C18.3417 19.2667 19.4333 18.175 19.4333 16.8333C19.4333 15.4917 18.3417 14.4 17 14.4Z" fill="white"/>
</svg>
